<?xml version="1.0" standalone="no"?>
<!DOCTYPE svg PUBLIC "-//W3C//DTD SVG 20010904//EN"
 "http://www.w3.org/TR/2001/REC-SVG-20010904/DTD/svg10.dtd">
<svg version="1.0" xmlns="http://www.w3.org/2000/svg"
 width="512.000000pt" height="512.000000pt" viewBox="0 0 512.000000 512.000000"
 preserveAspectRatio="xMidYMid meet">

<g transform="translate(0.000000,512.000000) scale(0.100000,-0.100000)"
fill="#fff" stroke="none">
<path d="M1345 5105 c-105 -17 -242 -59 -267 -82 -23 -21 -23 -75 0 -103 23
-28 56 -28 137 0 141 49 327 61 529 35 139 -18 584 -109 643 -131 23 -8 54
-30 69 -47 23 -27 26 -38 22 -89 -4 -51 -9 -63 -42 -97 -24 -24 -55 -44 -82
-51 -40 -12 -52 -10 -122 13 -161 55 -465 88 -631 70 -162 -18 -225 -59 -200
-131 14 -40 46 -52 137 -52 87 0 242 -29 291 -54 67 -35 69 -149 4 -208 -12
-11 -96 -35 -215 -62 -109 -25 -217 -55 -245 -69 -51 -26 -95 -70 -149 -149
-73 -105 -398 -307 -554 -343 -94 -21 -234 -18 -376 9 -67 13 -126 26 -132 30
-9 5 -12 90 -12 302 0 321 2 333 57 372 16 11 86 52 156 91 152 84 246 146
382 251 206 159 235 201 180 255 -41 42 -62 33 -206 -83 -152 -122 -276 -206
-464 -313 -156 -89 -226 -152 -243 -221 -8 -31 -12 -151 -12 -355 0 -300 1
-310 22 -353 36 -71 82 -95 228 -121 69 -11 150 -26 180 -31 30 -5 76 -7 102
-4 l46 5 -43 -92 c-55 -115 -97 -242 -127 -377 -21 -98 -23 -128 -23 -460 0
-351 0 -355 23 -398 54 -102 153 -172 243 -172 l46 0 7 -75 c7 -82 33 -167 70
-229 34 -58 132 -149 195 -181 56 -28 161 -54 221 -55 34 -1 36 -3 72 -79 45
-95 138 -236 207 -313 28 -31 51 -58 51 -60 0 -1 -42 -46 -93 -99 -51 -53
-121 -137 -156 -185 -71 -100 -186 -325 -196 -383 -14 -83 38 -175 120 -212
38 -18 105 -19 1365 -19 1260 0 1327 1 1365 19 82 37 134 129 120 212 -10 58
-125 282 -197 383 -34 49 -106 133 -158 187 l-95 97 58 69 c75 87 147 196 199
299 l40 82 69 6 c116 12 218 56 298 130 82 76 151 225 151 325 l0 47 58 12
c108 22 222 126 258 235 14 42 15 94 11 385 -4 298 -7 348 -26 437 -30 134
-81 285 -130 383 l-40 81 52 -5 c28 -3 90 2 137 11 47 9 125 23 174 31 97 16
129 29 163 66 50 53 53 76 53 403 0 190 -4 323 -11 350 -21 85 -55 112 -345
283 -138 82 -284 187 -432 311 -133 112 -246 180 -366 220 -267 88 -494 81
-1036 -34 -240 -51 -278 -63 -332 -106 l-38 -30 -37 30 c-21 16 -56 37 -78 45
-49 19 -416 99 -580 127 -160 27 -401 33 -520 14z m2495 -165 c129 -31 249
-95 365 -192 229 -191 351 -277 552 -389 70 -39 140 -80 156 -91 55 -39 57
-51 57 -365 0 -158 -4 -294 -9 -302 -13 -20 -242 -60 -350 -61 -53 0 -124 7
-160 16 -161 38 -482 236 -555 342 -93 136 -145 164 -406 222 -112 25 -192 47
-203 58 -30 27 -47 68 -47 112 0 52 13 76 52 96 49 25 205 54 296 54 80 0 85
1 114 30 24 25 29 36 24 58 -17 72 -104 97 -331 96 -200 -1 -359 -22 -493 -66
-84 -28 -98 -29 -134 -19 -21 7 -56 28 -77 47 -90 81 -64 206 51 243 55 17
498 109 583 120 44 6 94 13 110 15 77 11 322 -3 405 -24z m-1240 -480 c101
-80 213 -95 350 -46 41 14 98 29 127 33 l52 6 -19 -52 c-39 -101 -20 -222 46
-300 61 -70 80 -79 296 -127 112 -25 214 -53 228 -62 l25 -16 -48 -7 c-27 -4
-81 -18 -120 -30 -49 -16 -98 -23 -153 -23 -74 -1 -85 -4 -135 -35 l-54 -33
-45 17 c-361 140 -743 149 -1112 24 l-118 -39 -37 24 c-56 35 -109 49 -165 43
-38 -5 -67 0 -123 18 -40 14 -97 28 -127 33 l-53 8 25 16 c14 9 116 37 228 62
216 48 235 57 296 127 66 78 85 199 46 300 l-19 52 52 -6 c29 -4 86 -19 127
-33 111 -39 197 -38 282 4 35 17 73 41 83 52 10 11 20 20 23 20 2 0 21 -14 42
-30z m-1154 -720 c32 -6 65 -13 73 -16 9 -3 -10 -29 -58 -78 -99 -103 -127
-176 -102 -266 6 -20 -2 -38 -45 -95 -109 -148 -184 -307 -230 -487 -24 -90
-27 -127 -30 -297 l-4 -195 -67 -31 c-81 -38 -148 -96 -197 -169 -47 -70 -86
-86 -153 -61 -29 11 -54 31 -74 58 l-29 40 0 288 c0 158 5 323 11 366 28 209
105 420 211 578 37 56 46 63 136 105 105 49 236 131 346 216 75 60 96 64 212
44z m1384 -19 c58 -12 147 -35 198 -53 92 -31 93 -32 87 -60 -4 -16 -1 -52 6
-81 11 -48 23 -63 148 -189 115 -115 143 -138 180 -148 53 -14 114 -6 167 20
21 11 39 20 41 20 1 0 24 -33 51 -72 90 -134 150 -269 183 -418 23 -101 35
-282 25 -364 l-8 -59 -106 6 c-252 15 -450 108 -682 322 -115 106 -139 121
-197 131 -58 9 -101 -7 -210 -79 -98 -65 -294 -168 -386 -202 -62 -23 -87 -66
-66 -111 19 -40 57 -51 111 -33 71 23 317 150 419 217 53 34 101 62 108 62 7
0 53 -37 102 -82 136 -125 231 -192 364 -258 125 -62 224 -94 322 -105 32 -3
77 -8 99 -11 l42 -5 12 -99 c32 -249 -12 -513 -123 -735 -175 -351 -473 -595
-846 -692 -133 -35 -355 -43 -502 -18 -549 91 -976 491 -1084 1012 -23 109
-30 281 -16 393 19 153 -6 136 209 144 267 9 565 56 605 95 22 21 25 74 6 97
-25 30 -53 33 -140 14 -173 -39 -309 -52 -529 -54 l-215 -1 1 175 c0 149 3
188 23 260 43 162 129 344 204 433 l32 37 45 -22 c54 -27 149 -30 195 -6 17 9
87 74 156 145 114 116 127 133 138 180 7 29 10 65 6 81 -6 29 -4 30 62 54 82
31 231 65 333 78 109 13 309 4 430 -19z m1057 -25 c113 -89 227 -160 337 -212
98 -46 107 -53 144 -109 106 -157 183 -369 211 -578 6 -43 11 -206 11 -361 l0
-283 -29 -43 c-36 -54 -104 -100 -146 -100 -30 0 -35 5 -61 56 -49 96 -177
207 -265 229 l-27 7 5 126 c9 212 -33 423 -123 619 -28 63 -115 202 -179 289
-12 16 -13 27 -5 48 30 79 -1 158 -101 262 -49 50 -67 75 -58 78 30 11 116 24
165 25 48 1 57 -3 121 -53z m-2090 -26 c38 -23 67 -73 59 -104 -7 -28 -218
-236 -240 -236 -26 0 -72 27 -95 56 -40 50 -30 69 91 191 69 70 120 113 133
113 11 0 34 -9 52 -20z m1710 -92 c80 -80 113 -120 113 -136 0 -47 -68 -112
-116 -112 -22 0 -233 208 -240 236 -12 46 54 123 106 124 18 0 53 -29 137
-112z m-2371 -1424 c-13 -34 -27 -254 -20 -334 6 -79 38 -272 50 -305 5 -11
-2 -13 -33 -8 -100 14 -190 80 -241 176 -24 47 -27 62 -27 157 0 95 3 110 27
156 41 77 108 133 193 160 53 17 58 17 51 -2z m2941 -15 c55 -24 122 -91 153
-154 34 -70 36 -217 4 -286 -25 -54 -82 -120 -128 -148 -32 -20 -146 -55 -153
-47 -3 2 6 51 18 108 19 84 23 134 24 268 0 91 -4 193 -8 228 l-8 63 28 -7
c15 -4 47 -15 70 -25z m-2373 -1396 c35 -27 91 -65 125 -86 46 -28 61 -43 61
-60 0 -97 84 -276 176 -376 l66 -71 -256 0 -256 0 0 79 c0 99 -16 253 -40 390
l-18 106 36 32 c21 18 38 33 40 33 2 0 31 -21 66 -47z m1815 18 l35 -29 -17
-93 c-16 -94 -32 -239 -43 -402 l-6 -87 -250 0 -250 0 65 70 c94 101 177 280
177 381 0 23 10 33 63 62 34 20 89 56 122 81 33 25 62 45 65 45 3 0 20 -12 39
-28z m-2053 -469 l7 -142 -110 0 c-97 0 -112 2 -128 20 -17 19 -17 22 0 67 26
71 101 209 154 283 l46 65 12 -75 c6 -41 15 -139 19 -218z m2320 142 c30 -50
68 -124 85 -163 29 -68 29 -74 14 -97 -15 -23 -20 -24 -128 -24 l-113 0 3 92
c4 100 21 278 30 317 l6 25 24 -30 c13 -16 49 -70 79 -120z m-1590 76 c262
-67 541 -62 781 15 43 14 81 25 85 25 11 0 -9 -56 -43 -122 -42 -80 -136 -174
-215 -215 -205 -108 -446 -72 -609 92 -58 58 -117 152 -135 216 -8 27 -7 30 8
24 9 -4 67 -20 128 -35z"/>
<path d="M1869 2067 c-59 -32 -100 -92 -107 -156 -6 -70 14 -101 67 -101 45 0
65 19 80 76 6 23 18 45 27 48 46 18 94 -8 94 -51 0 -11 9 -32 21 -47 26 -33
79 -36 109 -6 56 56 -15 213 -113 249 -49 19 -130 13 -178 -12z"/>
<path d="M3101 2068 c-60 -32 -103 -94 -109 -157 -6 -70 14 -101 67 -101 43 0
66 19 77 65 3 17 14 38 22 48 32 36 102 9 102 -40 0 -37 38 -73 76 -73 74 0
95 73 49 167 -37 73 -89 106 -174 111 -54 3 -74 -1 -110 -20z"/>
<path d="M2381 1764 c-29 -36 -26 -57 11 -99 52 -60 101 -80 193 -80 88 0 126
14 183 68 38 36 44 93 14 120 -24 21 -85 22 -103 1 -19 -23 -65 -44 -97 -44
-16 0 -49 13 -73 30 -57 38 -100 39 -128 4z"/>
</g>
</svg>
