<?xml version="1.0" standalone="no"?>
<!DOCTYPE svg PUBLIC "-//W3C//DTD SVG 20010904//EN"
 "http://www.w3.org/TR/2001/REC-SVG-20010904/DTD/svg10.dtd">
<svg version="1.0" xmlns="http://www.w3.org/2000/svg"
 width="283.000000pt" height="281.000000pt" viewBox="0 0 283.000000 281.000000"
 preserveAspectRatio="xMidYMid meet">

<g transform="translate(0.000000,281.000000) scale(0.100000,-0.100000)"
fill="#fff" stroke="none">
<path d="M1335 2564 c-206 -44 -385 -206 -446 -405 -11 -36 -23 -94 -27 -130
-6 -56 -10 -64 -29 -67 -12 -2 -34 -17 -48 -33 -24 -29 -25 -36 -25 -154 0
-114 2 -126 23 -149 12 -14 38 -29 57 -34 l35 -8 15 -95 c19 -110 39 -149 93
-179 33 -19 48 -21 95 -16 52 6 57 5 86 -23 17 -17 54 -43 83 -58 l51 -29 -19
-44 -20 -45 -232 -110 c-211 -100 -238 -116 -294 -171 -69 -68 -80 -94 -128
-316 -23 -105 -26 -130 -15 -143 11 -13 42 -15 213 -13 178 3 201 5 211 20 20
32 -4 53 -66 56 l-56 3 11 40 c8 33 7 43 -5 56 -27 26 -56 7 -70 -45 l-14 -47
-73 -3 -73 -3 7 38 c20 111 57 236 80 272 15 21 43 51 63 64 64 44 443 220
452 211 5 -5 40 -94 79 -199 38 -104 72 -198 76 -207 5 -11 18 -18 35 -18 27
0 30 6 104 206 42 113 76 209 76 215 0 5 6 9 13 9 19 0 422 -196 458 -222 60
-45 100 -144 134 -331 l7 -38 -73 3 -73 3 -14 47 c-14 52 -43 71 -70 45 -12
-13 -13 -23 -4 -56 l10 -41 -443 0 c-244 0 -450 -3 -459 -6 -21 -8 -21 -60 0
-68 9 -3 280 -6 604 -6 515 0 589 2 600 15 11 13 8 39 -15 143 -48 222 -59
248 -128 316 -56 56 -83 71 -294 171 l-232 110 -19 46 -20 47 41 18 c67 30
189 157 229 239 20 39 41 86 47 106 l12 37 80 4 c74 3 83 6 105 31 23 26 24
36 24 152 0 118 -1 125 -25 154 -14 16 -36 31 -48 33 -19 3 -23 11 -29 66 -9
78 -32 161 -63 222 -29 57 -48 74 -75 65 -26 -8 -26 -44 0 -87 31 -50 60 -154
60 -214 0 -76 -22 -71 -49 11 -61 187 -227 337 -405 368 -196 33 -405 -88
-505 -296 -23 -46 -41 -90 -41 -99 0 -18 -28 -44 -37 -34 -9 9 -5 81 8 141 41
178 218 346 406 386 72 14 212 7 273 -15 25 -9 72 -33 104 -53 63 -39 88 -37
94 5 7 43 -143 121 -270 142 -83 13 -138 12 -223 -6z m277 -276 c139 -64 248
-223 277 -406 9 -60 -3 -71 -49 -47 -30 15 -30 15 -70 167 -11 39 -57 84 -96
94 -28 7 -51 4 -146 -21 -65 -17 -71 -17 -135 0 -100 26 -130 29 -163 15 -49
-20 -76 -62 -94 -144 -18 -78 -37 -110 -71 -120 -40 -11 -45 4 -29 84 40 198
176 360 338 401 61 16 177 4 238 -23z m-150 -298 c40 1 91 7 113 15 54 20 89
19 107 -2 8 -10 23 -50 32 -89 10 -39 26 -84 36 -101 21 -35 75 -63 119 -63
l32 0 -7 -52 c-8 -71 -48 -188 -80 -241 -15 -23 -47 -64 -73 -90 -149 -154
-345 -178 -500 -60 l-35 27 80 26 79 27 28 -21 c35 -25 94 -27 130 -3 84 55
65 179 -33 208 -56 17 -107 -10 -137 -71 -21 -45 -23 -46 -113 -75 -91 -29
-92 -29 -107 -10 -48 65 -91 179 -108 293 -7 42 -7 42 25 42 45 0 99 28 120
63 10 17 26 62 36 101 26 109 47 124 131 95 33 -12 79 -19 125 -19z m-512
-210 l0 -111 -57 3 -58 3 -3 94 c-2 60 1 98 9 107 7 8 31 14 60 14 l49 0 0
-110z m1129 96 c8 -9 11 -47 9 -107 l-3 -94 -57 -3 -58 -3 0 111 0 110 49 0
c29 0 53 -6 60 -14z m-1095 -333 c9 -27 32 -76 50 -110 31 -58 32 -63 14 -63
-50 0 -70 34 -83 135 -4 28 -9 58 -12 68 -2 9 0 17 6 17 5 0 17 -21 25 -47z
m506 -58 c26 -32 -13 -81 -47 -59 -35 22 -23 74 17 74 10 0 23 -7 30 -15z m75
-361 c21 -52 20 -58 -24 -82 -50 -28 -112 -28 -162 0 -44 24 -45 30 -24 82
l15 36 90 0 90 0 15 -36z m-28 -189 c-2 -5 -19 -52 -37 -102 -18 -51 -36 -93
-40 -93 -4 0 -22 42 -40 93 -18 50 -35 97 -37 102 -2 6 27 10 77 10 50 0 79
-4 77 -10z"/>
</g>
</svg>
