<?xml version="1.0" standalone="no"?>
<!DOCTYPE svg PUBLIC "-//W3C//DTD SVG 20010904//EN"
 "http://www.w3.org/TR/2001/REC-SVG-20010904/DTD/svg10.dtd">
<svg version="1.0" xmlns="http://www.w3.org/2000/svg"
 width="512.000000pt" height="512.000000pt" viewBox="0 0 512.000000 512.000000"
 preserveAspectRatio="xMidYMid meet">

<g transform="translate(0.000000,512.000000) scale(0.100000,-0.100000)"
fill="#fff" stroke="none">
<path d="M1848 4197 c-26 -12 -283 -220 -587 -474 -603 -507 -586 -489 -586
-613 1 -145 116 -249 265 -238 l60 4 0 -451 c0 -446 0 -452 21 -471 18 -16 42
-20 163 -24 l141 -5 3 -489 c2 -487 2 -490 24 -513 23 -24 66 -30 98 -13 28
15 40 65 40 171 l0 99 460 0 460 0 0 -105 c0 -110 12 -156 45 -169 34 -13 72
-6 93 17 22 23 22 24 22 515 l0 492 250 0 c281 0 318 -7 398 -76 24 -21 112
-140 211 -288 258 -384 343 -453 671 -546 195 -55 193 -55 224 -28 22 19 36
56 76 201 28 97 50 184 50 191 0 40 -45 64 -188 105 -158 44 -211 70 -265 130
-20 22 -103 141 -185 263 -82 123 -171 247 -197 276 -93 103 -214 181 -350
228 -66 23 -104 28 -220 33 l-140 6 0 224 0 225 66 -3 c77 -3 119 12 173 59
55 49 79 103 80 180 2 124 19 106 -585 613 -306 256 -560 462 -587 474 -31 15
-66 23 -102 23 -36 0 -71 -8 -102 -23z m671 -583 c323 -271 536 -457 542 -473
22 -56 -18 -111 -79 -111 -36 0 -69 26 -515 399 -262 220 -486 402 -497 406
-11 3 -29 3 -40 0 -11 -4 -235 -186 -497 -406 -445 -373 -479 -399 -515 -399
-61 0 -104 61 -80 114 6 13 133 126 284 252 150 126 390 327 533 446 232 195
263 218 295 218 33 0 83 -39 569 -446z m-170 -294 l390 -325 0 -452 1 -453
-155 0 -155 0 0 214 c0 239 -9 292 -69 385 -90 139 -233 213 -411 213 -178 0
-321 -74 -411 -213 -60 -93 -69 -146 -69 -385 l0 -214 -155 0 -155 0 1 453 0
452 392 327 c216 180 395 327 399 325 5 -1 183 -148 397 -327z m-340 -580 c84
-14 129 -38 184 -100 70 -78 77 -110 77 -347 l0 -203 -321 0 -320 0 3 223 c3
249 5 255 82 335 50 53 99 79 168 91 29 5 55 9 58 10 3 0 34 -4 69 -9z m1166
-495 c101 -26 197 -79 278 -155 60 -56 110 -122 247 -325 218 -324 249 -352
459 -414 58 -17 106 -32 107 -34 2 -1 -8 -38 -20 -82 -27 -92 -13 -88 -161
-44 -228 70 -310 143 -530 474 -90 136 -176 253 -209 286 -100 99 -203 139
-358 139 l-88 0 0 85 0 85 108 0 c63 0 132 -6 167 -15z m-765 -430 l0 -115
-460 0 -460 0 0 115 0 115 460 0 460 0 0 -115z m0 -375 l0 -100 -460 0 -460 0
0 100 0 100 460 0 460 0 0 -100z"/>
</g>
</svg>
