<?xml version="1.0" standalone="no"?>
<!DOCTYPE svg PUBLIC "-//W3C//DTD SVG 20010904//EN"
 "http://www.w3.org/TR/2001/REC-SVG-20010904/DTD/svg10.dtd">
<svg version="1.0" xmlns="http://www.w3.org/2000/svg"
 width="512.000000pt" height="512.000000pt" viewBox="0 0 512.000000 512.000000"
 preserveAspectRatio="xMidYMid meet">

<g transform="translate(0.000000,512.000000) scale(0.100000,-0.100000)"
fill="#ffff" stroke="none">
<path d="M2417 5105 c-338 -64 -620 -279 -763 -579 -62 -131 -85 -352 -65
-636 20 -285 54 -460 121 -627 l30 -74 -20 -197 c-33 -326 -84 -565 -128 -605
-24 -22 -197 -54 -380 -71 -139 -13 -160 -18 -225 -49 -261 -125 -322 -368
-218 -870 23 -109 64 -294 91 -410 28 -117 62 -264 75 -328 13 -63 35 -142 49
-174 104 -235 365 -418 617 -433 93 -5 445 13 545 28 51 8 75 6 155 -14 188
-48 284 -60 484 -60 194 -1 283 9 430 45 183 46 351 120 513 225 103 67 262
220 348 334 80 106 202 350 243 485 86 285 113 624 65 815 -43 173 -155 321
-294 388 l-76 37 29 40 c101 138 156 342 144 529 -14 209 -88 376 -228 515
-121 122 -281 191 -441 191 l-70 0 6 28 c43 214 52 552 18 718 -64 319 -223
542 -477 669 -49 24 -126 54 -170 66 -106 27 -301 34 -408 14z m315 -139 c80
-16 128 -32 202 -66 l48 -23 -6 -45 c-19 -138 -133 -221 -491 -357 -82 -31
-192 -76 -243 -100 -255 -120 -393 -273 -424 -469 l-13 -76 -36 0 -37 0 -7
136 c-10 184 6 367 41 472 46 134 176 292 324 391 185 123 435 177 642 137z
m443 -269 c155 -206 211 -477 169 -824 -7 -51 -8 -53 -38 -53 l-31 0 -17 105
c-28 171 -117 400 -226 579 l-42 68 36 40 c32 36 57 81 78 141 8 24 16 18 71
-56z m-242 -304 c127 -227 197 -443 197 -607 0 -33 4 -66 8 -72 15 -23 53 -34
115 -34 57 0 65 -2 62 -17 -2 -10 -7 -35 -10 -55 -5 -33 -12 -41 -68 -70 -129
-69 -264 -228 -321 -379 -31 -84 -56 -203 -56 -273 0 -54 -1 -55 -43 -81 -92
-53 -153 -68 -282 -69 -105 0 -129 4 -187 26 -99 37 -173 85 -248 158 -157
154 -274 379 -329 633 -31 145 -35 137 54 137 67 0 79 3 100 25 21 20 25 34
25 82 0 128 44 228 141 317 83 77 158 116 434 227 132 52 263 107 290 122 28
14 53 26 57 27 4 0 31 -44 61 -97z m696 -938 c85 -22 159 -65 226 -130 280
-273 251 -779 -59 -1000 -286 -204 -642 -59 -763 310 -23 69 -26 97 -26 205
-1 207 52 349 178 476 130 132 287 181 444 139z m-1710 -550 l41 -50 0 -141 0
-142 -44 -39 c-24 -21 -67 -51 -96 -67 -45 -25 -51 -26 -46 -10 21 70 85 446
86 509 0 11 5 6 59 -60z m1015 -409 c34 -77 98 -165 166 -229 80 -76 140 -114
230 -144 l65 -22 -40 -17 c-59 -24 -134 -14 -330 45 -192 59 -356 134 -456
210 -68 52 -250 235 -269 272 -10 18 -9 20 8 15 56 -18 164 -36 220 -36 81 0
200 25 282 59 l65 27 21 -71 c12 -38 29 -87 38 -109z m-614 -120 c194 -202
303 -260 775 -417 79 -26 207 -35 273 -19 64 15 124 57 153 108 21 37 26 39
93 51 39 6 97 22 129 35 l57 24 0 -372 0 -371 -37 -65 c-54 -93 -234 -271
-353 -349 -183 -120 -430 -224 -639 -269 l-92 -20 -8 21 c-17 44 -22 157 -11
235 26 190 125 386 290 576 43 50 60 78 60 98 0 34 -31 68 -62 68 -49 0 -190
59 -270 113 -143 95 -303 272 -428 472 -64 103 -150 286 -150 319 0 26 7 20
67 -60 37 -49 106 -129 153 -178z m-130 -245 c174 -254 411 -460 602 -524 15
-5 9 -17 -36 -77 -112 -149 -188 -314 -222 -480 -13 -66 -16 -115 -11 -222 l5
-138 -92 0 c-184 0 -359 35 -486 97 -55 27 -95 56 -150 112 -123 123 -168 241
-179 464 -6 120 -8 130 -30 148 -32 26 -63 24 -91 -6 -22 -23 -22 -28 -17
-167 8 -223 65 -377 188 -512 180 -196 459 -289 819 -273 426 20 843 184 1157
456 91 78 94 73 27 -46 -189 -339 -603 -575 -1214 -692 -324 -63 -814 -99
-940 -70 -89 20 -188 77 -270 155 -117 112 -139 160 -205 456 -29 134 -74 333
-99 443 -50 227 -82 392 -92 481 -14 136 38 302 115 364 62 48 105 61 260 76
336 32 576 103 735 218 l49 35 59 -106 c33 -58 86 -145 118 -192z m1835 36
c103 -52 171 -137 211 -261 32 -102 40 -217 25 -371 -37 -378 -159 -681 -370
-919 -212 -239 -490 -392 -818 -451 -107 -19 -341 -31 -408 -20 l-50 7 120 32
c624 166 1030 493 1158 936 42 144 47 217 47 657 l0 424 23 -7 c12 -3 40 -16
62 -27z"/>
</g>
</svg>
